<?xml version="1.0" encoding="UTF-8" standalone="no"?><!DOCTYPE svg PUBLIC "-//W3C//DTD SVG 1.1//EN" "http://www.w3.org/Graphics/SVG/1.1/DTD/svg11.dtd"><svg width="100%" height="100%" viewBox="0 0 193 193" version="1.1" xmlns="http://www.w3.org/2000/svg" xmlns:xlink="http://www.w3.org/1999/xlink" xml:space="preserve" xmlns:serif="http://www.serif.com/" style="fill-rule:evenodd;clip-rule:evenodd;stroke-linejoin:round;stroke-miterlimit:2;"><rect id="de-liker-logo" x="0.211" y="0.216" width="192" height="192" style="fill:none;"/><clipPath id="_clip1"><rect x="0.211" y="0.216" width="192" height="192"/></clipPath><g clip-path="url(#_clip1)"><path d="M79.572,23.797l-68.341,149.705l-11.02,-5.081l68.269,-149.49l11.092,4.866Zm17.67,84.512l-0.419,-41.492l15.808,0c0.283,13.246 0.491,38.635 0.509,52.39c0.018,14.16 -2.7,28.018 -17.119,33.174c-3.408,1.219 -9.746,1.634 -13.357,1.388c-17.706,-1.211 -26.869,-19.249 -21.326,-35.221c3.265,-9.411 11.087,-15.26 21.06,-15.567c3.026,-0.093 6.115,0.437 8.964,1.46c2.208,0.792 4.082,2.362 5.88,3.868Zm46.863,40.869l-16.193,0l0,-80.102l26.024,0c4.144,0.198 7.312,0.545 10.035,1.412c3.039,0.967 5.468,2.262 7.941,3.869c2.474,1.606 4.45,3.727 5.928,6.361c1.478,2.635 2.216,6.611 2.216,10.53c0,4.627 -3.037,9.806 -5.523,12.971c-2.352,2.994 -6.977,7.407 -5.211,13.374c2.206,7.455 21.617,29.22 22.832,29.766l-20.443,0.067c0,0 -11.619,-15.758 -14.909,-21.752c-1.573,-2.867 -3.344,-8.748 -2.245,-14.64c0.818,-4.393 3.661,-7.125 5.181,-8.96c1.195,-1.442 4.477,-6.049 4.573,-9.836c0.08,-3.139 -0.913,-6.909 -5.747,-8.724c-1.246,-0.468 -4.563,-1.137 -5.784,-1.137l-8.771,0l0.096,66.801Zm48.049,-1.819l0.057,0c-0.007,0.014 -0.026,0.014 -0.057,0Zm-93.955,-18.56c0,-3.818 -1.739,-7.694 -4.783,-10.048c-5.269,-4.075 -13.288,-2.499 -16.531,3.337c-1.094,1.971 -1.626,4.4 -1.626,6.615c0,2.231 0.541,4.71 1.626,6.711c3.203,5.907 11.217,7.543 16.531,3.434c3.044,-2.354 4.783,-6.23 4.783,-10.049Z" style="fill:#00c0a0;fill-rule:nonzero;"/></g></svg>