<?xml version="1.0" encoding="UTF-8" standalone="no"?><!DOCTYPE svg PUBLIC "-//W3C//DTD SVG 1.1//EN" "http://www.w3.org/Graphics/SVG/1.1/DTD/svg11.dtd"><svg width="100%" height="100%" viewBox="0 0 193 193" version="1.1" xmlns="http://www.w3.org/2000/svg" xmlns:xlink="http://www.w3.org/1999/xlink" xml:space="preserve" xmlns:serif="http://www.serif.com/" style="fill-rule:evenodd;clip-rule:evenodd;stroke-linejoin:round;stroke-miterlimit:2;"><rect id="de-liker-logo-padding-bg-w" x="0.059" y="0.193" width="192" height="192" style="fill:#f8f8f8;"/><path d="M86.004,38.181l-48.155,105.488l-7.766,-3.58l48.105,-105.337l7.816,3.429Zm12.451,59.551l-0.295,-29.238l11.139,0c0.199,9.334 0.346,27.224 0.358,36.917c0.013,9.977 -1.902,19.742 -12.062,23.375c-2.402,0.859 -6.867,1.152 -9.412,0.978c-12.476,-0.853 -18.933,-13.563 -15.027,-24.818c2.301,-6.631 7.812,-10.753 14.84,-10.969c2.132,-0.065 4.308,0.308 6.316,1.029c1.556,0.558 2.876,1.664 4.143,2.726Zm33.022,28.798l-11.41,0l0,-56.444l18.337,0c2.92,0.14 5.153,0.384 7.071,0.995c2.141,0.682 3.853,1.594 5.596,2.726c1.743,1.132 3.136,2.627 4.177,4.483c1.041,1.856 1.562,4.658 1.562,7.42c0,3.26 -2.141,6.909 -3.892,9.139c-1.657,2.11 -4.916,5.22 -3.672,9.424c1.554,5.254 15.232,20.59 16.088,20.975l-14.405,0.047c0,0 -8.187,-11.104 -10.505,-15.328c-1.109,-2.02 -2.357,-6.164 -1.583,-10.316c0.577,-3.095 2.581,-5.02 3.651,-6.313c0.842,-1.016 3.155,-4.263 3.223,-6.931c0.056,-2.212 -0.643,-4.868 -4.05,-6.147c-0.878,-0.33 -3.215,-0.801 -4.076,-0.801l-6.18,0l0.068,47.071Zm33.857,-1.282l0.04,0c-0.004,0.01 -0.018,0.01 -0.04,0Zm-66.205,-13.078c0,-2.691 -1.225,-5.422 -3.37,-7.081c-3.713,-2.871 -9.363,-1.761 -11.648,2.352c-0.771,1.389 -1.146,3.1 -1.146,4.661c0,1.572 0.382,3.318 1.146,4.729c2.257,4.162 7.904,5.315 11.648,2.419c2.145,-1.659 3.37,-4.39 3.37,-7.08Z" style="fill:#00c0a0;fill-rule:nonzero;"/></svg>