<?xml version="1.0" encoding="UTF-8" standalone="no"?><!DOCTYPE svg PUBLIC "-//W3C//DTD SVG 1.1//EN" "http://www.w3.org/Graphics/SVG/1.1/DTD/svg11.dtd"><svg width="100%" height="100%" viewBox="0 0 193 193" version="1.1" xmlns="http://www.w3.org/2000/svg" xmlns:xlink="http://www.w3.org/1999/xlink" xml:space="preserve" xmlns:serif="http://www.serif.com/" style="fill-rule:evenodd;clip-rule:evenodd;stroke-linejoin:round;stroke-miterlimit:2;"><rect id="de-liker-padding" x="0.02" y="0.217" width="192" height="192" style="fill:none;"/><path d="M85.965,38.205l-48.156,105.489l-7.765,-3.581l48.105,-105.337l7.816,3.429Zm12.451,59.551l-0.295,-29.237l11.139,0c0.199,9.333 0.346,27.224 0.358,36.916c0.013,9.978 -1.902,19.742 -12.062,23.376c-2.402,0.859 -6.868,1.152 -9.412,0.978c-12.476,-0.853 -18.933,-13.564 -15.028,-24.819c2.302,-6.631 7.813,-10.752 14.841,-10.968c2.132,-0.066 4.308,0.307 6.316,1.028c1.556,0.559 2.876,1.664 4.143,2.726Zm33.022,28.798l-11.411,0l0,-56.443l18.338,0c2.92,0.139 5.152,0.384 7.071,0.995c2.141,0.681 3.853,1.594 5.596,2.726c1.743,1.132 3.136,2.626 4.177,4.482c1.041,1.857 1.562,4.658 1.562,7.42c0,3.26 -2.141,6.91 -3.892,9.14c-1.658,2.109 -4.917,5.219 -3.672,9.424c1.554,5.253 15.232,20.589 16.088,20.974l-14.405,0.047c0,0 -8.187,-11.103 -10.506,-15.327c-1.108,-2.02 -2.356,-6.164 -1.582,-10.316c0.577,-3.095 2.581,-5.021 3.651,-6.313c0.842,-1.017 3.155,-4.263 3.223,-6.932c0.056,-2.212 -0.644,-4.868 -4.05,-6.147c-0.878,-0.33 -3.215,-0.801 -4.076,-0.801l-6.18,0l0.068,47.071Zm33.857,-1.282l0.04,0c-0.004,0.01 -0.018,0.01 -0.04,0Zm-66.205,-13.078c0,-2.69 -1.225,-5.422 -3.37,-7.08c-3.713,-2.871 -9.363,-1.761 -11.648,2.351c-0.771,1.389 -1.146,3.1 -1.146,4.661c0,1.573 0.381,3.319 1.146,4.729c2.257,4.163 7.904,5.315 11.648,2.42c2.145,-1.659 3.37,-4.39 3.37,-7.081Z" style="fill:#00c0a0;fill-rule:nonzero;"/></svg>