<?xml version="1.0" encoding="UTF-8" standalone="no"?><!DOCTYPE svg PUBLIC "-//W3C//DTD SVG 1.1//EN" "http://www.w3.org/Graphics/SVG/1.1/DTD/svg11.dtd"><svg width="100%" height="100%" viewBox="0 0 193 193" version="1.1" xmlns="http://www.w3.org/2000/svg" xmlns:xlink="http://www.w3.org/1999/xlink" xml:space="preserve" xmlns:serif="http://www.serif.com/" style="fill-rule:evenodd;clip-rule:evenodd;stroke-linejoin:round;stroke-miterlimit:2;"><rect id="de-liker-padding-bg-b" x="0.093" y="0.002" width="192" height="192" style="fill:#181818;"/><path d="M86.038,37.99l-48.155,105.488l-7.765,-3.58l48.105,-105.337l7.815,3.429Zm12.451,59.551l-0.294,-29.238l11.138,0c0.199,9.334 0.346,27.224 0.359,36.917c0.013,9.978 -1.902,19.742 -12.063,23.376c-2.401,0.858 -6.867,1.151 -9.412,0.977c-12.476,-0.853 -18.932,-13.563 -15.027,-24.818c2.301,-6.631 7.812,-10.752 14.84,-10.969c2.132,-0.065 4.309,0.308 6.316,1.029c1.556,0.558 2.876,1.664 4.143,2.726Zm33.022,28.798l-11.41,0l0,-56.444l18.338,0c2.92,0.14 5.152,0.385 7.071,0.995c2.141,0.682 3.852,1.595 5.595,2.727c1.744,1.132 3.136,2.626 4.177,4.482c1.042,1.857 1.562,4.658 1.562,7.42c0,3.26 -2.14,6.909 -3.892,9.139c-1.657,2.11 -4.916,5.22 -3.672,9.425c1.554,5.253 15.233,20.589 16.089,20.974l-14.406,0.047c0,0 -8.187,-11.103 -10.505,-15.327c-1.109,-2.021 -2.356,-6.164 -1.582,-10.316c0.577,-3.095 2.58,-5.021 3.651,-6.314c0.842,-1.016 3.154,-4.263 3.222,-6.931c0.056,-2.212 -0.643,-4.868 -4.05,-6.147c-0.878,-0.33 -3.215,-0.801 -4.075,-0.801l-6.181,0l0.068,47.071Zm33.858,-1.282l0.04,0c-0.005,0.01 -0.018,0.01 -0.04,0Zm-66.205,-13.078c0,-2.691 -1.226,-5.422 -3.371,-7.081c-3.712,-2.871 -9.363,-1.761 -11.648,2.352c-0.771,1.389 -1.146,3.1 -1.146,4.661c0,1.572 0.382,3.319 1.146,4.729c2.257,4.162 7.904,5.315 11.648,2.419c2.145,-1.658 3.371,-4.39 3.371,-7.08Z" style="fill:#00c0a0;fill-rule:nonzero;"/></svg>