<?xml version="1.0" encoding="UTF-8" standalone="no"?><!DOCTYPE svg PUBLIC "-//W3C//DTD SVG 1.1//EN" "http://www.w3.org/Graphics/SVG/1.1/DTD/svg11.dtd"><svg width="100%" height="100%" viewBox="0 0 193 193" version="1.1" xmlns="http://www.w3.org/2000/svg" xmlns:xlink="http://www.w3.org/1999/xlink" xml:space="preserve" xmlns:serif="http://www.serif.com/" style="fill-rule:evenodd;clip-rule:evenodd;stroke-linejoin:round;stroke-miterlimit:2;"><rect id="de-liker-padding-bg-w" x="0.164" y="0.01" width="192" height="192" style="fill:#f8f8f8;"/><path d="M86.109,37.999l-48.156,105.488l-7.765,-3.58l48.105,-105.337l7.816,3.429Zm12.451,59.551l-0.295,-29.238l11.138,0c0.2,9.334 0.346,27.224 0.359,36.917c0.013,9.977 -1.902,19.742 -12.063,23.375c-2.401,0.859 -6.867,1.152 -9.411,0.978c-12.477,-0.853 -18.933,-13.563 -15.028,-24.818c2.301,-6.632 7.813,-10.753 14.84,-10.969c2.132,-0.066 4.309,0.308 6.317,1.028c1.556,0.559 2.876,1.665 4.143,2.727Zm33.021,28.797l-11.41,0l0,-56.443l18.338,0c2.92,0.14 5.152,0.384 7.071,0.995c2.141,0.681 3.852,1.594 5.596,2.726c1.743,1.132 3.135,2.626 4.177,4.483c1.041,1.856 1.561,4.657 1.561,7.419c0,3.261 -2.14,6.91 -3.892,9.14c-1.657,2.11 -4.916,5.22 -3.672,9.424c1.555,5.254 15.233,20.589 16.089,20.975l-14.405,0.047c0,0 -8.188,-11.104 -10.506,-15.328c-1.108,-2.02 -2.356,-6.164 -1.582,-10.316c0.577,-3.095 2.58,-5.02 3.651,-6.313c0.842,-1.017 3.155,-4.263 3.222,-6.931c0.057,-2.212 -0.643,-4.868 -4.049,-6.148c-0.878,-0.329 -3.215,-0.8 -4.076,-0.8l-6.181,0l0.068,47.07Zm33.858,-1.281l0.04,-0.001c-0.005,0.011 -0.018,0.01 -0.04,0.001Zm-66.205,-13.079c0,-2.69 -1.225,-5.421 -3.37,-7.08c-3.713,-2.871 -9.363,-1.761 -11.648,2.352c-0.772,1.388 -1.146,3.1 -1.146,4.661c0,1.572 0.381,3.318 1.146,4.728c2.257,4.163 7.903,5.316 11.648,2.42c2.145,-1.659 3.37,-4.39 3.37,-7.081Z" style="fill:#00c0a0;fill-rule:nonzero;"/></svg>