<?xml version="1.0" encoding="UTF-8" standalone="no"?><!DOCTYPE svg PUBLIC "-//W3C//DTD SVG 1.1//EN" "http://www.w3.org/Graphics/SVG/1.1/DTD/svg11.dtd"><svg width="100%" height="100%" viewBox="0 0 193 193" version="1.1" xmlns="http://www.w3.org/2000/svg" xmlns:xlink="http://www.w3.org/1999/xlink" xml:space="preserve" xmlns:serif="http://www.serif.com/" style="fill-rule:evenodd;clip-rule:evenodd;stroke-linejoin:round;stroke-miterlimit:2;"><rect id="de-liker-logo-padding-bg-b" x="0.177" y="0.151" width="192" height="192" style="fill:#181818;"/><path d="M86.122,38.139l-48.156,105.488l-7.765,-3.58l48.105,-105.337l7.816,3.429Zm12.451,59.551l-0.295,-29.238l11.138,0c0.2,9.334 0.346,27.224 0.359,36.917c0.013,9.978 -1.902,19.742 -12.062,23.376c-2.402,0.858 -6.868,1.151 -9.412,0.977c-12.477,-0.853 -18.933,-13.563 -15.028,-24.818c2.301,-6.631 7.813,-10.752 14.84,-10.969c2.133,-0.065 4.309,0.308 6.317,1.029c1.556,0.558 2.876,1.664 4.143,2.726Zm33.021,28.798l-11.41,0l0,-56.444l18.338,0c2.92,0.14 5.152,0.384 7.071,0.995c2.141,0.682 3.853,1.595 5.596,2.727c1.743,1.131 3.135,2.626 4.177,4.482c1.041,1.857 1.561,4.658 1.561,7.42c0,3.26 -2.14,6.909 -3.891,9.139c-1.658,2.11 -4.917,5.22 -3.673,9.425c1.555,5.253 15.233,20.589 16.089,20.974l-14.405,0.047c0,0 -8.188,-11.103 -10.506,-15.328c-1.108,-2.02 -2.356,-6.163 -1.582,-10.315c0.577,-3.096 2.58,-5.021 3.651,-6.314c0.842,-1.016 3.155,-4.263 3.222,-6.931c0.057,-2.212 -0.643,-4.868 -4.049,-6.147c-0.878,-0.33 -3.215,-0.801 -4.076,-0.801l-6.18,0l0.067,47.071Zm33.858,-1.282l0.04,0c-0.005,0.01 -0.018,0.01 -0.04,0Zm-66.205,-13.078c0,-2.691 -1.225,-5.422 -3.37,-7.081c-3.713,-2.871 -9.363,-1.761 -11.648,2.352c-0.772,1.389 -1.146,3.1 -1.146,4.661c0,1.572 0.381,3.319 1.146,4.729c2.257,4.162 7.903,5.315 11.648,2.419c2.145,-1.658 3.37,-4.39 3.37,-7.08Z" style="fill:#00c0a0;fill-rule:nonzero;"/></svg>