<?xml version="1.0" encoding="UTF-8" standalone="no"?>
<!DOCTYPE svg PUBLIC "-//W3C//DTD SVG 1.1//EN" "http://www.w3.org/Graphics/SVG/1.1/DTD/svg11.dtd">
<svg width="100%" height="100%" viewBox="0 0 1586 200" version="1.1" xmlns="http://www.w3.org/2000/svg" xmlns:xlink="http://www.w3.org/1999/xlink" xml:space="preserve" xmlns:serif="http://www.serif.com/" style="fill-rule:evenodd;clip-rule:evenodd;stroke-linejoin:round;stroke-miterlimit:2;">
    <g transform="matrix(1,0,0,1,-6668.38,-2789.66)">
        <g id="t-c" transform="matrix(1.9825,0,0,0.25,942.367,2323.16)">
            <rect x="2888.28" y="1866.02" width="800" height="800" style="fill:none;"/>
            <clipPath id="_clip1">
                <rect x="2888.28" y="1866.02" width="800" height="800"/>
            </clipPath>
            <g clip-path="url(#_clip1)">
                <g transform="matrix(1.75518,0,0,13.9186,-2477.04,-31885.4)">
                    <path d="M3064.18,2427.23L3064.18,2481.14L3056.93,2481.14L3056.93,2482.24L3064.18,2482.24C3067.17,2482.24 3070.16,2482.27 3073.12,2482.32C3076.09,2482.37 3079.08,2482.4 3082.07,2482.4C3084.12,2482.4 3086.34,2482.24 3088.73,2481.93C3091.12,2481.61 3093.54,2481.05 3095.98,2480.23C3098.42,2479.42 3100.78,2478.33 3103.03,2476.96C3105.29,2475.59 3107.3,2473.86 3109.06,2471.76C3110.82,2469.66 3112.23,2467.16 3113.28,2464.27C3114.33,2461.38 3114.86,2458.02 3114.86,2454.18C3114.86,2450.29 3114.33,2446.91 3113.28,2444.01C3112.23,2441.12 3110.81,2438.63 3109.02,2436.53C3107.24,2434.43 3105.19,2432.69 3102.88,2431.33C3100.57,2429.96 3098.12,2428.87 3095.55,2428.05C3092.97,2427.24 3090.37,2426.68 3087.74,2426.36C3085.12,2426.05 3082.62,2425.89 3080.26,2425.89C3077.58,2425.89 3074.9,2425.93 3072.22,2426.01C3069.54,2426.09 3066.86,2426.12 3064.18,2426.12L3056.93,2426.12L3056.93,2427.23L3064.18,2427.23ZM3304.78,2424.92L3292.66,2424.92L3292.66,2482.24L3304.78,2482.24L3304.78,2424.92ZM3233.12,2482.24L3269.81,2482.24L3269.81,2472.25L3245.24,2472.25L3245.24,2424.92L3233.12,2424.92L3233.12,2482.24ZM3402.7,2482.24L3441.43,2482.24L3441.43,2472.25L3414.82,2472.25L3414.82,2458.56L3439.34,2458.56L3439.34,2448.57L3414.82,2448.57L3414.82,2434.91L3441.32,2434.91L3441.32,2424.92L3402.7,2424.92L3402.7,2482.24ZM3467.37,2482.24L3479.49,2482.24L3479.49,2461.92L3488.34,2461.92L3499.2,2482.24L3512.57,2482.24L3500.4,2459.96C3506.92,2457.16 3510.53,2451.48 3510.53,2443.64C3510.53,2432.25 3503,2424.92 3489.99,2424.92L3467.37,2424.92L3467.37,2482.24ZM3334.32,2482.24L3346.44,2482.24L3346.44,2465.95L3352.4,2458.67L3368.1,2482.24L3382.6,2482.24L3361.08,2450.59L3382.35,2424.92L3367.82,2424.92L3347.19,2450.19L3346.44,2450.19L3346.44,2424.92L3334.32,2424.92L3334.32,2482.24ZM3127.65,2426.12L3127.65,2427.23L3134.9,2427.23L3134.9,2481.14L3127.65,2481.14L3127.65,2482.24L3178.01,2482.24L3178.01,2464.98L3176.99,2464.98C3176.46,2467.24 3175.7,2469.35 3174.7,2471.32C3173.7,2473.3 3172.45,2475.01 3170.96,2476.49C3169.46,2477.96 3167.74,2479.1 3165.8,2479.91C3163.85,2480.73 3161.67,2481.14 3159.25,2481.14L3146.33,2481.14L3146.33,2452.68L3151.61,2452.68C3153.45,2452.68 3154.98,2453 3156.22,2453.63C3157.45,2454.26 3158.49,2455.12 3159.33,2456.19C3160.17,2457.27 3160.84,2458.52 3161.34,2459.94C3161.84,2461.35 3162.28,2462.83 3162.64,2464.35L3163.67,2464.35L3163.67,2439.84L3162.64,2439.84C3162.28,2441.62 3161.8,2443.24 3161.22,2444.68C3160.65,2446.13 3159.91,2447.37 3159.02,2448.39C3158.12,2449.41 3157.01,2450.2 3155.67,2450.75C3154.33,2451.3 3152.69,2451.58 3150.74,2451.58L3146.33,2451.58L3146.33,2427.23L3158.86,2427.23C3161.43,2427.23 3163.62,2427.71 3165.4,2428.69C3167.19,2429.66 3168.65,2430.8 3169.78,2432.11C3170.91,2433.43 3171.78,2434.78 3172.42,2436.17C3173.05,2437.57 3173.49,2438.71 3173.76,2439.6L3174.78,2439.6L3174.78,2426.12L3127.65,2426.12ZM3075.61,2481.14L3075.61,2427.23C3076.13,2427.12 3076.82,2427.06 3077.66,2427.03C3078.5,2427 3079.44,2426.99 3080.49,2426.99C3085.06,2426.99 3088.76,2427.65 3091.57,2428.96C3094.38,2430.28 3096.56,2432.15 3098.11,2434.6C3099.66,2437.04 3100.7,2439.98 3101.22,2443.42C3101.75,2446.87 3102.01,2450.71 3102.01,2454.97C3102.01,2456.7 3101.93,2458.56 3101.77,2460.53C3101.62,2462.5 3101.29,2464.47 3100.79,2466.44C3100.29,2468.41 3099.55,2470.29 3098.58,2472.07C3097.61,2473.86 3096.3,2475.45 3094.64,2476.84C3092.99,2478.23 3090.95,2479.34 3088.53,2480.15C3086.12,2480.97 3083.2,2481.37 3079.78,2481.37C3078.52,2481.37 3077.13,2481.29 3075.61,2481.14ZM3479.49,2452.18L3479.49,2434.83L3487.66,2434.83C3494.66,2434.83 3498.05,2437.93 3498.05,2443.64C3498.05,2449.33 3494.66,2452.18 3487.72,2452.18L3479.49,2452.18Z" style="fill:rgb(138,183,255);fill-rule:nonzero;"/>
                </g>
            </g>
        </g>
    </g>
</svg>
