<?xml version="1.0" encoding="UTF-8" standalone="no"?><!DOCTYPE svg PUBLIC "-//W3C//DTD SVG 1.1//EN" "http://www.w3.org/Graphics/SVG/1.1/DTD/svg11.dtd"><svg width="100%" height="100%" viewBox="0 0 193 193" version="1.1" xmlns="http://www.w3.org/2000/svg" xmlns:xlink="http://www.w3.org/1999/xlink" xml:space="preserve" xmlns:serif="http://www.serif.com/" style="fill-rule:evenodd;clip-rule:evenodd;stroke-linejoin:round;stroke-miterlimit:2;"><rect id="likcast-padding" x="0.042" y="0.093" width="192" height="192" style="fill:none;"/><path d="M122.859,138.36l-3.368,3.367c-1.58,-1.419 -3.044,-2.128 -4.391,-2.128c-0.916,0 -1.675,0.256 -2.277,0.768c-0.601,0.512 -0.902,1.145 -0.902,1.899c0,0.736 0.251,1.355 0.754,1.858c0.503,0.521 1.554,1.221 3.152,2.101c2.281,1.275 3.808,2.442 4.58,3.502c0.827,1.041 1.24,2.397 1.24,4.067c0,2.406 -0.836,4.336 -2.506,5.791c-1.706,1.436 -3.924,2.154 -6.654,2.154c-3.718,0 -6.798,-1.679 -9.241,-5.036l3.906,-2.721c1.599,1.922 3.305,2.882 5.119,2.882c1.024,0 1.846,-0.269 2.465,-0.808c0.62,-0.539 0.93,-1.239 0.93,-2.101c0,-0.754 -0.261,-1.364 -0.782,-1.831c-0.251,-0.234 -0.691,-0.557 -1.32,-0.97c-0.628,-0.413 -1.481,-0.907 -2.559,-1.481c-1.904,-1.06 -3.224,-2.092 -3.96,-3.098c-0.737,-1.059 -1.105,-2.352 -1.105,-3.878c0,-2.299 0.844,-4.202 2.532,-5.71c1.689,-1.509 3.835,-2.263 6.439,-2.263c2.874,0 5.523,1.212 7.948,3.636Zm-54.014,1.113l-2.1,3.801c-1.221,-1.562 -1.908,-1.888 -3.022,-2.57c-1.095,-0.665 -2.388,-0.997 -3.879,-0.997c-2.263,0 -4.122,0.835 -5.577,2.505c-1.455,1.67 -2.182,3.816 -2.182,6.437c0,2.46 0.682,4.426 2.047,5.899c1.383,1.49 3.171,2.235 5.362,2.235c2.101,0 4.274,-0.906 6.519,-2.72l2.427,3.802c-2.493,2.68 -7.698,3.874 -9.781,3.874c-3.718,0 -6.745,-1.212 -9.08,-3.636c-2.316,-2.424 -3.475,-5.566 -3.475,-9.427c0,-3.968 1.248,-7.281 3.745,-9.939c2.514,-2.675 5.64,-4.013 9.375,-4.013c3.054,0 7.186,1.314 9.621,4.749Zm27.45,21.458l-5.954,0l0.35,-2.747c-2.55,2.227 -5.19,3.34 -7.92,3.34c-3.359,0 -6.098,-1.14 -8.217,-3.421c-2.12,-2.28 -3.179,-5.234 -3.179,-8.861c0,-4.184 1.212,-7.614 3.637,-10.289c2.46,-2.676 5.612,-4.013 9.456,-4.013c1.814,0 3.359,0.296 4.634,0.888c1.293,0.593 2.613,1.616 3.96,3.071l0.404,-3.34l5.954,0l-3.125,25.372Zm53,0l-21.209,0l2.451,-19.85l-4.618,0l0.674,-5.522l4.618,0l0.954,-7.52l5.954,0l-0.954,7.52l6.496,0l-0.674,5.522l-6.496,0l-1.934,14.908l15.501,-0.003l-0.763,4.945Zm-57.122,-13.413c0,-2.245 -0.646,-4.067 -1.94,-5.468c-1.293,-1.418 -2.963,-2.128 -5.011,-2.128c-2.227,0 -4.095,0.871 -5.603,2.613c-1.509,1.76 -2.263,3.915 -2.263,6.464c0,2.227 0.628,4.049 1.885,5.468c1.258,1.419 2.874,2.128 4.85,2.128c2.191,0 4.086,-0.889 5.684,-2.667c1.599,-1.813 2.398,-3.95 2.398,-6.41Zm-32.313,-25.504l-10.869,0l10.229,-83.047l10.82,0l-10.18,83.047Zm85.048,0l-13.131,0l-13.909,-20.67l7.256,-3.467l19.784,24.137Zm-59.031,0l-10.869,0l5.705,-46.318l10.869,0l-5.705,46.318Zm26.325,0l-10.869,0l10.23,-83.047l10.869,0l-6.738,54.466l-0.787,6.553l-2.705,22.028Zm6.383,-30.86l16.066,-15.458l16.066,0l-25.593,19.326l-6.539,-3.868Z" style="fill:#0096c0;fill-rule:nonzero;"/><clipPath id="_clip1"><path d="M122.859,138.36l-3.368,3.367c-1.58,-1.419 -3.044,-2.128 -4.391,-2.128c-0.916,0 -1.675,0.256 -2.277,0.768c-0.601,0.512 -0.902,1.145 -0.902,1.899c0,0.736 0.251,1.355 0.754,1.858c0.503,0.521 1.554,1.221 3.152,2.101c2.281,1.275 3.808,2.442 4.58,3.502c0.827,1.041 1.24,2.397 1.24,4.067c0,2.406 -0.836,4.336 -2.506,5.791c-1.706,1.436 -3.924,2.154 -6.654,2.154c-3.718,0 -6.798,-1.679 -9.241,-5.036l3.906,-2.721c1.599,1.922 3.305,2.882 5.119,2.882c1.024,0 1.846,-0.269 2.465,-0.808c0.62,-0.539 0.93,-1.239 0.93,-2.101c0,-0.754 -0.261,-1.364 -0.782,-1.831c-0.251,-0.234 -0.691,-0.557 -1.32,-0.97c-0.628,-0.413 -1.481,-0.907 -2.559,-1.481c-1.904,-1.06 -3.224,-2.092 -3.96,-3.098c-0.737,-1.059 -1.105,-2.352 -1.105,-3.878c0,-2.299 0.844,-4.202 2.532,-5.71c1.689,-1.509 3.835,-2.263 6.439,-2.263c2.874,0 5.523,1.212 7.948,3.636Zm-54.014,1.113l-2.1,3.801c-1.221,-1.562 -1.908,-1.888 -3.022,-2.57c-1.095,-0.665 -2.388,-0.997 -3.879,-0.997c-2.263,0 -4.122,0.835 -5.577,2.505c-1.455,1.67 -2.182,3.816 -2.182,6.437c0,2.46 0.682,4.426 2.047,5.899c1.383,1.49 3.171,2.235 5.362,2.235c2.101,0 4.274,-0.906 6.519,-2.72l2.427,3.802c-2.493,2.68 -7.698,3.874 -9.781,3.874c-3.718,0 -6.745,-1.212 -9.08,-3.636c-2.316,-2.424 -3.475,-5.566 -3.475,-9.427c0,-3.968 1.248,-7.281 3.745,-9.939c2.514,-2.675 5.64,-4.013 9.375,-4.013c3.054,0 7.186,1.314 9.621,4.749Zm27.45,21.458l-5.954,0l0.35,-2.747c-2.55,2.227 -5.19,3.34 -7.92,3.34c-3.359,0 -6.098,-1.14 -8.217,-3.421c-2.12,-2.28 -3.179,-5.234 -3.179,-8.861c0,-4.184 1.212,-7.614 3.637,-10.289c2.46,-2.676 5.612,-4.013 9.456,-4.013c1.814,0 3.359,0.296 4.634,0.888c1.293,0.593 2.613,1.616 3.96,3.071l0.404,-3.34l5.954,0l-3.125,25.372Zm53,0l-21.209,0l2.451,-19.85l-4.618,0l0.674,-5.522l4.618,0l0.954,-7.52l5.954,0l-0.954,7.52l6.496,0l-0.674,5.522l-6.496,0l-1.934,14.908l15.501,-0.003l-0.763,4.945Zm-57.122,-13.413c0,-2.245 -0.646,-4.067 -1.94,-5.468c-1.293,-1.418 -2.963,-2.128 -5.011,-2.128c-2.227,0 -4.095,0.871 -5.603,2.613c-1.509,1.76 -2.263,3.915 -2.263,6.464c0,2.227 0.628,4.049 1.885,5.468c1.258,1.419 2.874,2.128 4.85,2.128c2.191,0 4.086,-0.889 5.684,-2.667c1.599,-1.813 2.398,-3.95 2.398,-6.41Zm-32.313,-25.504l-10.869,0l10.229,-83.047l10.82,0l-10.18,83.047Zm85.048,0l-13.131,0l-13.909,-20.67l7.256,-3.467l19.784,24.137Zm-59.031,0l-10.869,0l5.705,-46.318l10.869,0l-5.705,46.318Zm26.325,0l-10.869,0l10.23,-83.047l10.869,0l-6.738,54.466l-0.787,6.553l-2.705,22.028Zm6.383,-30.86l16.066,-15.458l16.066,0l-25.593,19.326l-6.539,-3.868Z" clip-rule="nonzero"/></clipPath><g clip-path="url(#_clip1)"><path d="M85.987,38.082l-48.155,105.488l-7.766,-3.58l48.105,-105.337l7.816,3.429Zm12.451,59.551l-0.295,-29.238l11.139,0c0.199,9.334 0.346,27.224 0.358,36.917c0.013,9.977 -1.902,19.742 -12.062,23.375c-2.402,0.859 -6.867,1.152 -9.412,0.978c-12.476,-0.853 -18.933,-13.563 -15.027,-24.818c2.301,-6.631 7.812,-10.753 14.84,-10.969c2.132,-0.065 4.308,0.308 6.316,1.028c1.556,0.559 2.876,1.665 4.143,2.727Zm33.022,28.798l-11.41,0l0,-56.444l18.338,0c2.92,0.14 5.152,0.384 7.071,0.995c2.141,0.682 3.852,1.594 5.595,2.726c1.744,1.132 3.136,2.626 4.177,4.483c1.042,1.856 1.562,4.658 1.562,7.42c0,3.26 -2.14,6.909 -3.892,9.139c-1.657,2.11 -4.916,5.22 -3.672,9.424c1.554,5.254 15.232,20.59 16.088,20.975l-14.405,0.047c0,0 -8.187,-11.104 -10.505,-15.328c-1.109,-2.02 -2.356,-6.164 -1.582,-10.316c0.576,-3.095 2.58,-5.02 3.65,-6.313c0.843,-1.016 3.155,-4.263 3.223,-6.931c0.056,-2.212 -0.643,-4.868 -4.05,-6.148c-0.878,-0.329 -3.215,-0.8 -4.075,-0.8l-6.181,0l0.068,47.071Zm33.857,-1.282l0.041,0c-0.005,0.01 -0.019,0.01 -0.041,0Zm-66.204,-13.078c0,-2.691 -1.226,-5.422 -3.371,-7.081c-3.712,-2.871 -9.363,-1.761 -11.648,2.352c-0.771,1.388 -1.146,3.1 -1.146,4.661c0,1.572 0.382,3.318 1.146,4.728c2.257,4.163 7.904,5.316 11.648,2.42c2.145,-1.659 3.371,-4.39 3.371,-7.08Z" style="fill:#00c0a0;fill-rule:nonzero;"/></g></svg>