<?xml version="1.0" encoding="UTF-8" standalone="no"?><!DOCTYPE svg PUBLIC "-//W3C//DTD SVG 1.1//EN" "http://www.w3.org/Graphics/SVG/1.1/DTD/svg11.dtd"><svg width="100%" height="100%" viewBox="0 0 193 193" version="1.1" xmlns="http://www.w3.org/2000/svg" xmlns:xlink="http://www.w3.org/1999/xlink" xml:space="preserve" xmlns:serif="http://www.serif.com/" style="fill-rule:evenodd;clip-rule:evenodd;stroke-linejoin:round;stroke-miterlimit:2;"><rect id="likcast-padding-bg-w" x="0.007" y="0.178" width="192" height="192" style="fill:#f8f8f8;"/><path d="M122.824,138.444l-3.368,3.367c-1.58,-1.418 -3.044,-2.128 -4.391,-2.128c-0.916,0 -1.675,0.256 -2.277,0.768c-0.601,0.512 -0.902,1.145 -0.902,1.899c0,0.736 0.251,1.356 0.754,1.858c0.503,0.521 1.554,1.221 3.152,2.101c2.281,1.275 3.808,2.442 4.58,3.502c0.826,1.041 1.239,2.397 1.239,4.067c0,2.406 -0.835,4.336 -2.505,5.791c-1.706,1.436 -3.924,2.155 -6.654,2.155c-3.718,0 -6.799,-1.679 -9.241,-5.037l3.906,-2.721c1.599,1.922 3.305,2.882 5.119,2.882c1.024,0 1.845,-0.269 2.465,-0.808c0.62,-0.538 0.93,-1.239 0.93,-2.1c0,-0.755 -0.261,-1.365 -0.782,-1.832c-0.251,-0.233 -0.691,-0.557 -1.32,-0.97c-0.628,-0.413 -1.482,-0.906 -2.559,-1.481c-1.904,-1.059 -3.224,-2.092 -3.961,-3.098c-0.736,-1.059 -1.104,-2.352 -1.104,-3.878c0,-2.298 0.844,-4.202 2.532,-5.71c1.689,-1.509 3.835,-2.263 6.439,-2.263c2.874,0 5.523,1.212 7.948,3.636Zm-54.015,1.113l-2.099,3.801c-1.221,-1.562 -1.908,-1.888 -3.022,-2.57c-1.095,-0.665 -2.388,-0.997 -3.879,-0.997c-2.263,0 -4.122,0.835 -5.577,2.505c-1.455,1.67 -2.182,3.816 -2.182,6.437c0,2.46 0.682,4.427 2.047,5.899c1.383,1.49 3.17,2.236 5.362,2.236c2.101,0 4.274,-0.907 6.519,-2.721l2.427,3.802c-2.494,2.681 -7.698,3.875 -9.782,3.875c-3.717,0 -6.744,-1.212 -9.079,-3.637c-2.317,-2.424 -3.475,-5.566 -3.475,-9.427c0,-3.968 1.248,-7.281 3.745,-9.938c2.514,-2.676 5.639,-4.014 9.375,-4.014c3.053,0 7.186,1.314 9.62,4.749Zm27.451,21.459l-5.954,0l0.35,-2.748c-2.55,2.227 -5.19,3.34 -7.92,3.34c-3.359,0 -6.098,-1.14 -8.217,-3.421c-2.12,-2.28 -3.179,-5.234 -3.179,-8.861c0,-4.184 1.212,-7.613 3.637,-10.289c2.46,-2.675 5.612,-4.013 9.456,-4.013c1.814,0 3.359,0.296 4.634,0.889c1.293,0.592 2.613,1.616 3.96,3.07l0.404,-3.34l5.954,0l-3.125,25.373Zm53,0l-21.21,0l2.452,-19.851l-4.618,0l0.673,-5.522l4.619,0l0.954,-7.519l5.954,0l-0.955,7.519l6.497,0l-0.674,5.522l-6.496,0l-1.934,14.908l15.5,-0.003l-0.762,4.946Zm-57.122,-13.414c0,-2.244 -0.647,-4.067 -1.94,-5.468c-1.293,-1.418 -2.963,-2.127 -5.011,-2.127c-2.227,0 -4.095,0.871 -5.604,2.612c-1.508,1.76 -2.263,3.915 -2.263,6.465c0,2.226 0.629,4.049 1.886,5.467c1.258,1.419 2.874,2.128 4.85,2.128c2.191,0 4.086,-0.889 5.684,-2.666c1.599,-1.814 2.398,-3.951 2.398,-6.411Zm-32.313,-25.504l-10.869,0l10.229,-83.047l10.82,0l-10.18,83.047Zm85.048,0l-13.131,0l-13.909,-20.67l7.255,-3.467l19.785,24.137Zm-59.031,0l-10.87,0l5.706,-46.318l10.869,0l-5.705,46.318Zm26.325,0l-10.869,0l10.23,-83.047l10.869,0l-6.738,54.466l-0.787,6.553l-2.705,22.028Zm6.383,-30.86l16.066,-15.458l16.066,0l-25.594,19.327l-6.538,-3.869Z" style="fill:#0096c0;fill-rule:nonzero;"/><clipPath id="_clip1"><path d="M122.824,138.444l-3.368,3.367c-1.58,-1.418 -3.044,-2.128 -4.391,-2.128c-0.916,0 -1.675,0.256 -2.277,0.768c-0.601,0.512 -0.902,1.145 -0.902,1.899c0,0.736 0.251,1.356 0.754,1.858c0.503,0.521 1.554,1.221 3.152,2.101c2.281,1.275 3.808,2.442 4.58,3.502c0.826,1.041 1.239,2.397 1.239,4.067c0,2.406 -0.835,4.336 -2.505,5.791c-1.706,1.436 -3.924,2.155 -6.654,2.155c-3.718,0 -6.799,-1.679 -9.241,-5.037l3.906,-2.721c1.599,1.922 3.305,2.882 5.119,2.882c1.024,0 1.845,-0.269 2.465,-0.808c0.62,-0.538 0.93,-1.239 0.93,-2.1c0,-0.755 -0.261,-1.365 -0.782,-1.832c-0.251,-0.233 -0.691,-0.557 -1.32,-0.97c-0.628,-0.413 -1.482,-0.906 -2.559,-1.481c-1.904,-1.059 -3.224,-2.092 -3.961,-3.098c-0.736,-1.059 -1.104,-2.352 -1.104,-3.878c0,-2.298 0.844,-4.202 2.532,-5.71c1.689,-1.509 3.835,-2.263 6.439,-2.263c2.874,0 5.523,1.212 7.948,3.636Zm-54.015,1.113l-2.099,3.801c-1.221,-1.562 -1.908,-1.888 -3.022,-2.57c-1.095,-0.665 -2.388,-0.997 -3.879,-0.997c-2.263,0 -4.122,0.835 -5.577,2.505c-1.455,1.67 -2.182,3.816 -2.182,6.437c0,2.46 0.682,4.427 2.047,5.899c1.383,1.49 3.17,2.236 5.362,2.236c2.101,0 4.274,-0.907 6.519,-2.721l2.427,3.802c-2.494,2.681 -7.698,3.875 -9.782,3.875c-3.717,0 -6.744,-1.212 -9.079,-3.637c-2.317,-2.424 -3.475,-5.566 -3.475,-9.427c0,-3.968 1.248,-7.281 3.745,-9.938c2.514,-2.676 5.639,-4.014 9.375,-4.014c3.053,0 7.186,1.314 9.62,4.749Zm27.451,21.459l-5.954,0l0.35,-2.748c-2.55,2.227 -5.19,3.34 -7.92,3.34c-3.359,0 -6.098,-1.14 -8.217,-3.421c-2.12,-2.28 -3.179,-5.234 -3.179,-8.861c0,-4.184 1.212,-7.613 3.637,-10.289c2.46,-2.675 5.612,-4.013 9.456,-4.013c1.814,0 3.359,0.296 4.634,0.889c1.293,0.592 2.613,1.616 3.96,3.07l0.404,-3.34l5.954,0l-3.125,25.373Zm53,0l-21.21,0l2.452,-19.851l-4.618,0l0.673,-5.522l4.619,0l0.954,-7.519l5.954,0l-0.955,7.519l6.497,0l-0.674,5.522l-6.496,0l-1.934,14.908l15.5,-0.003l-0.762,4.946Zm-57.122,-13.414c0,-2.244 -0.647,-4.067 -1.94,-5.468c-1.293,-1.418 -2.963,-2.127 -5.011,-2.127c-2.227,0 -4.095,0.871 -5.604,2.612c-1.508,1.76 -2.263,3.915 -2.263,6.465c0,2.226 0.629,4.049 1.886,5.467c1.258,1.419 2.874,2.128 4.85,2.128c2.191,0 4.086,-0.889 5.684,-2.666c1.599,-1.814 2.398,-3.951 2.398,-6.411Zm-32.313,-25.504l-10.869,0l10.229,-83.047l10.82,0l-10.18,83.047Zm85.048,0l-13.131,0l-13.909,-20.67l7.255,-3.467l19.785,24.137Zm-59.031,0l-10.87,0l5.706,-46.318l10.869,0l-5.705,46.318Zm26.325,0l-10.869,0l10.23,-83.047l10.869,0l-6.738,54.466l-0.787,6.553l-2.705,22.028Zm6.383,-30.86l16.066,-15.458l16.066,0l-25.594,19.327l-6.538,-3.869Z" clip-rule="nonzero"/></clipPath><g clip-path="url(#_clip1)"><path d="M85.952,38.166l-48.155,105.488l-7.766,-3.58l48.105,-105.337l7.816,3.429Zm12.451,59.551l-0.295,-29.238l11.139,0c0.199,9.334 0.346,27.224 0.358,36.917c0.013,9.978 -1.902,19.742 -12.062,23.376c-2.402,0.858 -6.867,1.151 -9.412,0.977c-12.476,-0.853 -18.933,-13.563 -15.027,-24.818c2.301,-6.631 7.812,-10.752 14.84,-10.969c2.132,-0.065 4.308,0.308 6.316,1.029c1.556,0.558 2.876,1.664 4.143,2.726Zm33.022,28.798l-11.41,0l0,-56.444l18.337,0c2.92,0.14 5.153,0.384 7.071,0.995c2.142,0.682 3.853,1.595 5.596,2.727c1.743,1.131 3.136,2.626 4.177,4.482c1.041,1.857 1.562,4.658 1.562,7.42c0,3.26 -2.141,6.909 -3.892,9.139c-1.657,2.11 -4.916,5.22 -3.672,9.425c1.554,5.253 15.232,20.589 16.088,20.974l-14.405,0.047c0,0 -8.187,-11.103 -10.505,-15.328c-1.109,-2.02 -2.356,-6.163 -1.583,-10.315c0.577,-3.096 2.581,-5.021 3.651,-6.314c0.842,-1.016 3.155,-4.263 3.223,-6.931c0.056,-2.212 -0.643,-4.868 -4.05,-6.147c-0.878,-0.33 -3.215,-0.801 -4.076,-0.801l-6.18,0l0.068,47.071Zm33.857,-1.282l0.04,0c-0.004,0.01 -0.018,0.01 -0.04,0Zm-66.205,-13.078c0,-2.691 -1.225,-5.422 -3.37,-7.081c-3.713,-2.871 -9.363,-1.761 -11.648,2.352c-0.771,1.389 -1.146,3.1 -1.146,4.661c0,1.572 0.382,3.319 1.146,4.729c2.257,4.162 7.904,5.315 11.648,2.419c2.145,-1.658 3.37,-4.39 3.37,-7.08Z" style="fill:#00c0a0;fill-rule:nonzero;"/></g></svg>