<?xml version="1.0" encoding="UTF-8" standalone="no"?><!DOCTYPE svg PUBLIC "-//W3C//DTD SVG 1.1//EN" "http://www.w3.org/Graphics/SVG/1.1/DTD/svg11.dtd"><svg width="100%" height="100%" viewBox="0 0 193 193" version="1.1" xmlns="http://www.w3.org/2000/svg" xmlns:xlink="http://www.w3.org/1999/xlink" xml:space="preserve" xmlns:serif="http://www.serif.com/" style="fill-rule:evenodd;clip-rule:evenodd;stroke-linejoin:round;stroke-miterlimit:2;"><rect id="likcast" x="0.065" y="0.095" width="192" height="192" style="fill:none;"/><path d="M134.299,155.533l-5.266,5.265c-2.472,-2.218 -4.761,-3.327 -6.868,-3.327c-1.432,0 -2.619,0.4 -3.56,1.2c-0.941,0.8 -1.411,1.79 -1.411,2.97c0,1.151 0.393,2.12 1.179,2.906c0.787,0.814 2.43,1.909 4.93,3.285c3.567,1.994 5.955,3.82 7.162,5.476c1.292,1.629 1.938,3.749 1.938,6.361c0,3.763 -1.306,6.781 -3.918,9.056c-2.668,2.246 -6.137,3.37 -10.406,3.37c-5.815,0 -10.632,-2.626 -14.452,-7.877l6.109,-4.254c2.5,3.004 5.169,4.507 8.005,4.507c1.602,0 2.887,-0.422 3.856,-1.264c0.969,-0.842 1.453,-1.938 1.453,-3.286c0,-1.179 -0.407,-2.134 -1.222,-2.864c-0.393,-0.365 -1.081,-0.87 -2.064,-1.516c-0.983,-0.646 -2.317,-1.418 -4.003,-2.317c-2.977,-1.657 -5.042,-3.271 -6.193,-4.844c-1.152,-1.657 -1.728,-3.679 -1.728,-6.065c0,-3.595 1.321,-6.571 3.961,-8.93c2.64,-2.359 5.997,-3.539 10.069,-3.539c4.495,0 8.638,1.896 12.429,5.687Zm-84.471,1.74l-3.283,5.944c-1.91,-2.443 -2.984,-2.952 -4.726,-4.019c-1.713,-1.04 -3.735,-1.559 -6.067,-1.559c-3.539,0 -6.446,1.306 -8.721,3.917c-2.275,2.612 -3.413,5.968 -3.413,10.067c0,3.848 1.068,6.922 3.202,9.225c2.163,2.331 4.958,3.496 8.385,3.496c3.286,0 6.685,-1.418 10.196,-4.254l3.795,5.946c-3.9,4.191 -12.039,6.059 -15.297,6.059c-5.815,0 -10.547,-1.896 -14.199,-5.687c-3.623,-3.791 -5.435,-8.705 -5.435,-14.742c0,-6.206 1.952,-11.387 5.856,-15.543c3.933,-4.184 8.82,-6.277 14.662,-6.277c4.775,0 11.237,2.055 15.045,7.427Zm42.929,33.558l-9.311,0l0.548,-4.296c-3.989,3.482 -8.118,5.223 -12.387,5.223c-5.253,0 -9.536,-1.783 -12.85,-5.35c-3.315,-3.566 -4.972,-8.185 -4.972,-13.858c0,-6.543 1.896,-11.906 5.688,-16.09c3.848,-4.185 8.777,-6.277 14.788,-6.277c2.837,0 5.253,0.464 7.247,1.39c2.022,0.927 4.087,2.528 6.193,4.802l0.632,-5.223l9.311,0l-4.887,39.679Zm82.885,0l-33.169,0l3.834,-31.044l-7.222,0l1.053,-8.635l7.222,0l1.493,-11.76l9.311,0l-1.492,11.76l10.159,0l-1.053,8.635l-10.16,0l-3.024,23.314l24.24,-0.004l-1.192,7.734Zm-89.331,-20.977c0,-3.51 -1.011,-6.36 -3.034,-8.55c-2.022,-2.219 -4.634,-3.328 -7.836,-3.328c-3.483,0 -6.404,1.362 -8.764,4.086c-2.359,2.752 -3.539,6.121 -3.539,10.109c0,3.482 0.983,6.332 2.95,8.551c1.966,2.218 4.494,3.327 7.583,3.327c3.427,0 6.39,-1.39 8.89,-4.17c2.5,-2.836 3.75,-6.178 3.75,-10.025Zm-50.534,-39.885l-16.998,0l15.998,-129.874l16.921,0l-15.921,129.874Zm133.004,0l-20.536,0l-21.75,-32.325l11.346,-5.421l30.94,37.746Zm-92.317,0l-16.998,0l8.922,-72.434l16.998,0l-8.922,72.434Zm41.17,0l-16.998,0l15.998,-129.874l16.998,0l-10.537,85.177l-1.231,10.249l-4.23,34.448Zm9.982,-48.26l25.125,-24.174l25.125,0l-40.025,30.223l-10.225,-6.049Z" style="fill:#0096c0;fill-rule:nonzero;"/><clipPath id="_clip1"><path d="M134.299,155.533l-5.266,5.265c-2.472,-2.218 -4.761,-3.327 -6.868,-3.327c-1.432,0 -2.619,0.4 -3.56,1.2c-0.941,0.8 -1.411,1.79 -1.411,2.97c0,1.151 0.393,2.12 1.179,2.906c0.787,0.814 2.43,1.909 4.93,3.285c3.567,1.994 5.955,3.82 7.162,5.476c1.292,1.629 1.938,3.749 1.938,6.361c0,3.763 -1.306,6.781 -3.918,9.056c-2.668,2.246 -6.137,3.37 -10.406,3.37c-5.815,0 -10.632,-2.626 -14.452,-7.877l6.109,-4.254c2.5,3.004 5.169,4.507 8.005,4.507c1.602,0 2.887,-0.422 3.856,-1.264c0.969,-0.842 1.453,-1.938 1.453,-3.286c0,-1.179 -0.407,-2.134 -1.222,-2.864c-0.393,-0.365 -1.081,-0.87 -2.064,-1.516c-0.983,-0.646 -2.317,-1.418 -4.003,-2.317c-2.977,-1.657 -5.042,-3.271 -6.193,-4.844c-1.152,-1.657 -1.728,-3.679 -1.728,-6.065c0,-3.595 1.321,-6.571 3.961,-8.93c2.64,-2.359 5.997,-3.539 10.069,-3.539c4.495,0 8.638,1.896 12.429,5.687Zm-84.471,1.74l-3.283,5.944c-1.91,-2.443 -2.984,-2.952 -4.726,-4.019c-1.713,-1.04 -3.735,-1.559 -6.067,-1.559c-3.539,0 -6.446,1.306 -8.721,3.917c-2.275,2.612 -3.413,5.968 -3.413,10.067c0,3.848 1.068,6.922 3.202,9.225c2.163,2.331 4.958,3.496 8.385,3.496c3.286,0 6.685,-1.418 10.196,-4.254l3.795,5.946c-3.9,4.191 -12.039,6.059 -15.297,6.059c-5.815,0 -10.547,-1.896 -14.199,-5.687c-3.623,-3.791 -5.435,-8.705 -5.435,-14.742c0,-6.206 1.952,-11.387 5.856,-15.543c3.933,-4.184 8.82,-6.277 14.662,-6.277c4.775,0 11.237,2.055 15.045,7.427Zm42.929,33.558l-9.311,0l0.548,-4.296c-3.989,3.482 -8.118,5.223 -12.387,5.223c-5.253,0 -9.536,-1.783 -12.85,-5.35c-3.315,-3.566 -4.972,-8.185 -4.972,-13.858c0,-6.543 1.896,-11.906 5.688,-16.09c3.848,-4.185 8.777,-6.277 14.788,-6.277c2.837,0 5.253,0.464 7.247,1.39c2.022,0.927 4.087,2.528 6.193,4.802l0.632,-5.223l9.311,0l-4.887,39.679Zm82.885,0l-33.169,0l3.834,-31.044l-7.222,0l1.053,-8.635l7.222,0l1.493,-11.76l9.311,0l-1.492,11.76l10.159,0l-1.053,8.635l-10.16,0l-3.024,23.314l24.24,-0.004l-1.192,7.734Zm-89.331,-20.977c0,-3.51 -1.011,-6.36 -3.034,-8.55c-2.022,-2.219 -4.634,-3.328 -7.836,-3.328c-3.483,0 -6.404,1.362 -8.764,4.086c-2.359,2.752 -3.539,6.121 -3.539,10.109c0,3.482 0.983,6.332 2.95,8.551c1.966,2.218 4.494,3.327 7.583,3.327c3.427,0 6.39,-1.39 8.89,-4.17c2.5,-2.836 3.75,-6.178 3.75,-10.025Zm-50.534,-39.885l-16.998,0l15.998,-129.874l16.921,0l-15.921,129.874Zm133.004,0l-20.536,0l-21.75,-32.325l11.346,-5.421l30.94,37.746Zm-92.317,0l-16.998,0l8.922,-72.434l16.998,0l-8.922,72.434Zm41.17,0l-16.998,0l15.998,-129.874l16.998,0l-10.537,85.177l-1.231,10.249l-4.23,34.448Zm9.982,-48.26l25.125,-24.174l25.125,0l-40.025,30.223l-10.225,-6.049Z" clip-rule="nonzero"/></clipPath><g clip-path="url(#_clip1)"><path d="M76.637,-1.289l-75.309,164.969l-12.144,-5.599l75.23,-164.732l12.223,5.362Zm19.472,93.129l-0.462,-45.723l17.42,0c0.311,14.596 0.541,42.574 0.56,57.733c0.021,15.603 -2.974,30.874 -18.864,36.556c-3.755,1.343 -10.739,1.801 -14.719,1.529c-19.511,-1.334 -29.608,-21.211 -23.5,-38.812c3.598,-10.371 12.217,-16.816 23.208,-17.154c3.334,-0.103 6.738,0.481 9.878,1.608c2.433,0.873 4.497,2.603 6.479,4.263Zm51.641,45.037l-17.844,0l0,-88.271l28.678,0c4.566,0.219 8.057,0.601 11.058,1.556c3.349,1.066 6.025,2.494 8.751,4.264c2.726,1.77 4.904,4.107 6.532,7.01c1.629,2.903 2.442,7.284 2.442,11.604c0,5.098 -3.347,10.805 -6.086,14.292c-2.592,3.3 -7.688,8.163 -5.743,14.739c2.431,8.215 23.822,32.199 25.161,32.801l-22.528,0.073c0,0 -12.804,-17.364 -16.429,-23.97c-1.734,-3.159 -3.685,-9.639 -2.475,-16.132c0.903,-4.841 4.036,-7.852 5.71,-9.873c1.317,-1.59 4.933,-6.667 5.039,-10.84c0.088,-3.459 -1.005,-7.613 -6.333,-9.614c-1.373,-0.515 -5.028,-1.252 -6.374,-1.252l-9.665,0l0.106,73.613Zm52.949,-2.005l0.063,0c-0.008,0.015 -0.029,0.015 -0.063,0Zm-103.536,-20.453c0,-4.207 -1.916,-8.478 -5.271,-11.072c-5.806,-4.49 -14.642,-2.755 -18.215,3.677c-1.207,2.172 -1.793,4.848 -1.793,7.289c0,2.459 0.597,5.19 1.793,7.395c3.529,6.51 12.36,8.313 18.215,3.784c3.355,-2.594 5.271,-6.865 5.271,-11.073Z" style="fill:#00c0a0;fill-rule:nonzero;"/></g></svg>