<?xml version="1.0" encoding="UTF-8" standalone="no"?><!DOCTYPE svg PUBLIC "-//W3C//DTD SVG 1.1//EN" "http://www.w3.org/Graphics/SVG/1.1/DTD/svg11.dtd"><svg width="100%" height="100%" viewBox="0 0 193 193" version="1.1" xmlns="http://www.w3.org/2000/svg" xmlns:xlink="http://www.w3.org/1999/xlink" xml:space="preserve" xmlns:serif="http://www.serif.com/" style="fill-rule:evenodd;clip-rule:evenodd;stroke-linejoin:round;stroke-miterlimit:2;"><rect id="likcast-padding-bg-b" x="0.179" y="0.236" width="192" height="192" style="fill:#181818;"/><path d="M122.996,138.503l-3.368,3.367c-1.58,-1.419 -3.044,-2.128 -4.391,-2.128c-0.916,0 -1.675,0.256 -2.277,0.768c-0.602,0.511 -0.902,1.144 -0.902,1.898c0,0.737 0.251,1.356 0.754,1.859c0.503,0.521 1.554,1.221 3.152,2.101c2.281,1.275 3.808,2.442 4.58,3.501c0.826,1.042 1.239,2.397 1.239,4.067c0,2.406 -0.835,4.337 -2.505,5.791c-1.706,1.437 -3.925,2.155 -6.655,2.155c-3.717,0 -6.798,-1.679 -9.24,-5.037l3.906,-2.72c1.599,1.921 3.305,2.882 5.119,2.882c1.024,0 1.845,-0.269 2.465,-0.808c0.62,-0.539 0.929,-1.239 0.929,-2.101c0,-0.754 -0.26,-1.365 -0.781,-1.832c-0.251,-0.233 -0.691,-0.556 -1.32,-0.969c-0.629,-0.413 -1.482,-0.907 -2.559,-1.482c-1.904,-1.059 -3.224,-2.092 -3.961,-3.097c-0.736,-1.059 -1.104,-2.352 -1.104,-3.879c0,-2.298 0.844,-4.201 2.532,-5.71c1.688,-1.508 3.835,-2.262 6.439,-2.262c2.874,0 5.523,1.212 7.948,3.636Zm-54.015,1.112l-2.099,3.802c-1.221,-1.563 -1.908,-1.888 -3.022,-2.571c-1.095,-0.664 -2.389,-0.996 -3.879,-0.996c-2.263,0 -4.122,0.835 -5.577,2.505c-1.455,1.669 -2.182,3.815 -2.182,6.437c0,2.46 0.682,4.426 2.047,5.899c1.383,1.49 3.17,2.235 5.361,2.235c2.102,0 4.275,-0.907 6.52,-2.72l2.427,3.802c-2.494,2.68 -7.698,3.874 -9.782,3.874c-3.718,0 -6.744,-1.212 -9.079,-3.636c-2.317,-2.424 -3.475,-5.567 -3.475,-9.427c0,-3.969 1.248,-7.281 3.745,-9.939c2.514,-2.675 5.639,-4.013 9.375,-4.013c3.053,0 7.185,1.314 9.62,4.748Zm27.451,21.459l-5.954,0l0.35,-2.747c-2.55,2.226 -5.19,3.34 -7.921,3.34c-3.358,0 -6.097,-1.141 -8.217,-3.421c-2.119,-2.281 -3.179,-5.234 -3.179,-8.862c0,-4.183 1.213,-7.613 3.637,-10.289c2.461,-2.675 5.613,-4.013 9.457,-4.013c1.814,0 3.358,0.297 4.634,0.889c1.293,0.593 2.613,1.616 3.96,3.071l0.404,-3.34l5.954,0l-3.125,25.372Zm53,0l-21.21,0l2.452,-19.851l-4.618,0l0.673,-5.521l4.618,0l0.955,-7.52l5.954,0l-0.955,7.52l6.497,0l-0.674,5.521l-6.496,0l-1.934,14.908l15.5,-0.002l-0.762,4.945Zm-57.122,-13.413c0,-2.245 -0.647,-4.067 -1.94,-5.468c-1.293,-1.419 -2.963,-2.128 -5.011,-2.128c-2.227,0 -4.095,0.871 -5.604,2.613c-1.508,1.759 -2.263,3.914 -2.263,6.464c0,2.227 0.629,4.049 1.886,5.468c1.257,1.418 2.874,2.128 4.85,2.128c2.191,0 4.086,-0.889 5.684,-2.667c1.599,-1.814 2.398,-3.95 2.398,-6.41Zm-32.313,-25.505l-10.87,0l10.23,-83.047l10.82,0l-10.18,83.047Zm85.048,0l-13.132,0l-13.908,-20.669l7.255,-3.467l19.785,24.136Zm-59.032,0l-10.869,0l5.705,-46.317l10.87,0l-5.706,46.317Zm26.326,0l-10.869,0l10.23,-83.047l10.869,0l-6.738,54.466l-0.787,6.554l-2.705,22.027Zm6.383,-30.859l16.066,-15.458l16.066,0l-25.594,19.326l-6.538,-3.868Z" style="fill:#0096c0;fill-rule:nonzero;"/><clipPath id="_clip1"><path d="M122.996,138.503l-3.368,3.367c-1.58,-1.419 -3.044,-2.128 -4.391,-2.128c-0.916,0 -1.675,0.256 -2.277,0.768c-0.602,0.511 -0.902,1.144 -0.902,1.898c0,0.737 0.251,1.356 0.754,1.859c0.503,0.521 1.554,1.221 3.152,2.101c2.281,1.275 3.808,2.442 4.58,3.501c0.826,1.042 1.239,2.397 1.239,4.067c0,2.406 -0.835,4.337 -2.505,5.791c-1.706,1.437 -3.925,2.155 -6.655,2.155c-3.717,0 -6.798,-1.679 -9.24,-5.037l3.906,-2.72c1.599,1.921 3.305,2.882 5.119,2.882c1.024,0 1.845,-0.269 2.465,-0.808c0.62,-0.539 0.929,-1.239 0.929,-2.101c0,-0.754 -0.26,-1.365 -0.781,-1.832c-0.251,-0.233 -0.691,-0.556 -1.32,-0.969c-0.629,-0.413 -1.482,-0.907 -2.559,-1.482c-1.904,-1.059 -3.224,-2.092 -3.961,-3.097c-0.736,-1.059 -1.104,-2.352 -1.104,-3.879c0,-2.298 0.844,-4.201 2.532,-5.71c1.688,-1.508 3.835,-2.262 6.439,-2.262c2.874,0 5.523,1.212 7.948,3.636Zm-54.015,1.112l-2.099,3.802c-1.221,-1.563 -1.908,-1.888 -3.022,-2.571c-1.095,-0.664 -2.389,-0.996 -3.879,-0.996c-2.263,0 -4.122,0.835 -5.577,2.505c-1.455,1.669 -2.182,3.815 -2.182,6.437c0,2.46 0.682,4.426 2.047,5.899c1.383,1.49 3.17,2.235 5.361,2.235c2.102,0 4.275,-0.907 6.52,-2.72l2.427,3.802c-2.494,2.68 -7.698,3.874 -9.782,3.874c-3.718,0 -6.744,-1.212 -9.079,-3.636c-2.317,-2.424 -3.475,-5.567 -3.475,-9.427c0,-3.969 1.248,-7.281 3.745,-9.939c2.514,-2.675 5.639,-4.013 9.375,-4.013c3.053,0 7.185,1.314 9.62,4.748Zm27.451,21.459l-5.954,0l0.35,-2.747c-2.55,2.226 -5.19,3.34 -7.921,3.34c-3.358,0 -6.097,-1.141 -8.217,-3.421c-2.119,-2.281 -3.179,-5.234 -3.179,-8.862c0,-4.183 1.213,-7.613 3.637,-10.289c2.461,-2.675 5.613,-4.013 9.457,-4.013c1.814,0 3.358,0.297 4.634,0.889c1.293,0.593 2.613,1.616 3.96,3.071l0.404,-3.34l5.954,0l-3.125,25.372Zm53,0l-21.21,0l2.452,-19.851l-4.618,0l0.673,-5.521l4.618,0l0.955,-7.52l5.954,0l-0.955,7.52l6.497,0l-0.674,5.521l-6.496,0l-1.934,14.908l15.5,-0.002l-0.762,4.945Zm-57.122,-13.413c0,-2.245 -0.647,-4.067 -1.94,-5.468c-1.293,-1.419 -2.963,-2.128 -5.011,-2.128c-2.227,0 -4.095,0.871 -5.604,2.613c-1.508,1.759 -2.263,3.914 -2.263,6.464c0,2.227 0.629,4.049 1.886,5.468c1.257,1.418 2.874,2.128 4.85,2.128c2.191,0 4.086,-0.889 5.684,-2.667c1.599,-1.814 2.398,-3.95 2.398,-6.41Zm-32.313,-25.505l-10.87,0l10.23,-83.047l10.82,0l-10.18,83.047Zm85.048,0l-13.132,0l-13.908,-20.669l7.255,-3.467l19.785,24.136Zm-59.032,0l-10.869,0l5.705,-46.317l10.87,0l-5.706,46.317Zm26.326,0l-10.869,0l10.23,-83.047l10.869,0l-6.738,54.466l-0.787,6.554l-2.705,22.027Zm6.383,-30.859l16.066,-15.458l16.066,0l-25.594,19.326l-6.538,-3.868Z" clip-rule="nonzero"/></clipPath><g clip-path="url(#_clip1)"><path d="M86.124,38.224l-48.156,105.489l-7.765,-3.58l48.105,-105.337l7.816,3.428Zm12.451,59.551l-0.295,-29.237l11.139,0c0.199,9.333 0.346,27.224 0.358,36.916c0.013,9.978 -1.902,19.743 -12.062,23.376c-2.402,0.859 -6.868,1.152 -9.412,0.978c-12.476,-0.853 -18.933,-13.564 -15.027,-24.818c2.301,-6.632 7.812,-10.753 14.84,-10.969c2.132,-0.066 4.308,0.307 6.316,1.028c1.556,0.559 2.876,1.665 4.143,2.726Zm33.022,28.798l-11.411,0l0,-56.443l18.338,0c2.92,0.139 5.153,0.384 7.071,0.995c2.141,0.681 3.853,1.594 5.596,2.726c1.743,1.132 3.136,2.626 4.177,4.483c1.041,1.856 1.562,4.657 1.562,7.419c0,3.26 -2.141,6.91 -3.892,9.14c-1.657,2.109 -4.916,5.219 -3.672,9.424c1.554,5.253 15.232,20.589 16.088,20.974l-14.405,0.047c0,0 -8.187,-11.103 -10.505,-15.327c-1.109,-2.02 -2.357,-6.164 -1.583,-10.316c0.577,-3.095 2.581,-5.021 3.651,-6.313c0.842,-1.017 3.155,-4.263 3.223,-6.931c0.056,-2.212 -0.644,-4.868 -4.05,-6.148c-0.878,-0.33 -3.215,-0.8 -4.076,-0.801l-6.18,0l0.068,47.071Zm33.857,-1.282l0.04,0c-0.004,0.01 -0.018,0.01 -0.04,0Zm-66.205,-13.078c0,-2.69 -1.225,-5.421 -3.37,-7.08c-3.713,-2.871 -9.363,-1.761 -11.648,2.352c-0.771,1.388 -1.146,3.099 -1.146,4.66c0,1.573 0.381,3.319 1.146,4.729c2.257,4.163 7.904,5.315 11.648,2.42c2.145,-1.659 3.37,-4.39 3.37,-7.081Z" style="fill:#00c0a0;fill-rule:nonzero;"/></g></svg>